<?xml version="1.0" encoding="utf-8"?>
<!-- Generator: Adobe Illustrator 19.0.1, SVG Export Plug-In . SVG Version: 6.00 Build 0)  -->
<svg version="1.1" id="Слой_1" xmlns="http://www.w3.org/2000/svg" xmlns:xlink="http://www.w3.org/1999/xlink" x="0px" y="0px"
	 viewBox="0 0 169.6 41.7" style="enable-background:new 0 0 169.6 41.7;" xml:space="preserve">
<style type="text/css">
	.st0{fill-rule:evenodd;clip-rule:evenodd;fill:#FFFFFF;}
	.st1{fill-rule:evenodd;clip-rule:evenodd;fill:#E79234;}
	.st2{fill:#FFFFFF;}
	.st3{fill:#E79236;}
</style>
<path class="st0" d="M115.8,22.7c0,2.8-1.2,5.3-3.3,7.1L98.7,41.6c-0.2,0.2-0.5,0.2-0.6,0L84.3,29.8C82.1,28,81,25.5,81,22.7
	c0-5.1,0-10.3,0-15.4c0-4,3.3-7.3,7.3-7.3h20.3c4,0,7.3,3.3,7.3,7.3C115.8,12.4,115.8,17.5,115.8,22.7L115.8,22.7z M114.3,22.7
	c0,2.3-1,4.4-2.7,6L98.4,39.9L85.2,28.6c-1.8-1.5-2.7-3.6-2.7-6c0-5.1,0-10.3,0-15.4c0-3.2,2.6-5.8,5.8-5.8h20.3
	c3.2,0,5.8,2.6,5.8,5.8C114.3,12.4,114.3,17.5,114.3,22.7L114.3,22.7z"/>
<path class="st1" d="M112.8,22.7c0,1.9-0.8,3.6-2.2,4.8L98.4,37.9L86.2,27.5c-1.4-1.2-2.2-2.9-2.2-4.8c0-4.7,0-9.8,0-15.4
	C84,4.9,85.9,3,88.3,3h20.3c2.3,0,4.2,1.9,4.2,4.2C112.8,12.8,112.8,16.6,112.8,22.7L112.8,22.7z M88.3,4.5h20.3
	c1.5,0,2.7,1.2,2.7,2.7V11c0,0.2-0.1,0.3-0.3,0.3H93.9c-0.5,0-0.5,1.4,0,1.4h14.7c1.5,0,2.7,1.2,2.7,2.7v7.1c0,1.5-0.6,2.7-1.7,3.7
	L98.4,36l-11.2-9.6c-1.1-1-1.7-2.2-1.7-3.7v-1.3c0-0.2,0.1-0.3,0.3-0.3h17.1c0.5,0,0.5-1.4,0-1.4H88.3c-1.5,0-2.7-1.2-2.7-2.7V7.3
	C85.5,5.7,86.7,4.5,88.3,4.5L88.3,4.5z"/>
<g>
	<path class="st2" d="M14.3,25.2c-2.1,0.4-4,0.6-5.9,0.6c-0.7,0-1.5,0-2.1-0.1c-0.7-0.1-1.4-0.2-2.2-0.4c-0.8-0.2-1.5-0.5-2.1-0.9
		c-0.6-0.4-1.1-0.9-1.4-1.5C0.2,22.2,0,21.5,0,20.6v-8c0-3.7,2.8-5.5,8.4-5.5c1.4,0,3.3,0.2,5.8,0.6V11c-2.2-0.5-4.1-0.8-5.7-0.8
		c-0.6,0-1.2,0-1.6,0.1c-0.4,0-0.8,0.1-1.3,0.3s-0.8,0.4-1,0.7c-0.2,0.3-0.3,0.8-0.3,1.3v7.7c0,1.6,1.5,2.5,4.5,2.5
		c1.3,0,3.1-0.3,5.4-0.8V25.2z"/>
	<path class="st2" d="M32.7,19.2v1.2c0,1.1-0.2,2-0.6,2.7c-0.4,0.7-1,1.3-1.7,1.7c-0.8,0.4-1.6,0.7-2.5,0.8c-0.9,0.2-2,0.2-3.2,0.2
		c-1.7,0-3.9-0.2-6.4-0.5V22c3.1,0.5,5.3,0.7,6.5,0.7c2.4,0,3.6-0.6,3.6-1.9v-1.2c0-0.5-0.2-1-0.5-1.3c-0.3-0.3-1-0.5-1.9-0.5h-2.1
		c-4,0-6-1.6-6-4.8v-1.3c0-1.6,0.7-2.7,2-3.5c1.3-0.8,3.4-1.1,6.3-1.1c1.4,0,3.3,0.1,5.7,0.4v3.2c-2.8-0.3-4.8-0.5-5.8-0.5
		c-1.4,0-2.4,0.1-3,0.4c-0.5,0.2-0.8,0.7-0.8,1.2v1.3c0,1,0.8,1.4,2.4,1.4h2.2c2.1,0,3.6,0.4,4.5,1.2C32.3,16.5,32.7,17.6,32.7,19.2
		z"/>
	<path class="st2" d="M53.6,24.7c-0.9,0.3-2.1,0.6-3.6,0.8c-1.4,0.2-2.8,0.3-4,0.3c-1,0-1.9,0-2.7-0.1s-1.6-0.2-2.4-0.5
		s-1.5-0.5-2-0.9c-0.6-0.4-1-0.9-1.3-1.5c-0.3-0.6-0.5-1.4-0.5-2.2V13c0-1,0.2-1.8,0.6-2.5c0.4-0.7,0.9-1.3,1.5-1.7
		c0.6-0.4,1.3-0.8,2.2-1c0.8-0.3,1.6-0.4,2.4-0.5s1.6-0.1,2.5-0.1c2.6,0,5,0.2,7.4,0.6V11c-2.2-0.5-4.7-0.8-7.4-0.8
		c-3.2,0-4.7,0.9-4.7,2.7v7.3c0,0.9,0.4,1.6,1.3,1.9c0.9,0.4,2.2,0.5,3.8,0.5c0.9,0,1.9-0.1,2.9-0.4v-4.2h-3v-2.9h7.1V24.7z"/>
	<path class="st2" d="M75.7,12.6v8c0,1-0.3,1.9-0.8,2.6c-0.5,0.7-1.3,1.3-2.2,1.6c-0.9,0.4-1.8,0.6-2.7,0.8
		c-0.9,0.1-1.9,0.2-2.9,0.2c-1,0-1.9-0.1-2.7-0.2c-0.8-0.1-1.8-0.4-2.7-0.7s-1.7-0.9-2.3-1.6s-0.9-1.7-0.9-2.8v-8
		c0-0.9,0.2-1.8,0.6-2.5c0.4-0.7,0.9-1.3,1.5-1.6c0.6-0.4,1.3-0.7,2.1-0.9c0.8-0.2,1.6-0.4,2.2-0.4c0.7-0.1,1.3-0.1,2.1-0.1
		c0.7,0,1.5,0,2.1,0.1c0.7,0.1,1.4,0.2,2.3,0.4c0.8,0.2,1.6,0.5,2.2,0.9c0.6,0.4,1.1,0.9,1.5,1.6C75.5,10.8,75.7,11.7,75.7,12.6z
		 M71.3,20.6v-8c0-0.9-0.4-1.5-1.1-1.8c-0.7-0.4-1.8-0.5-3.2-0.5c-1.4,0-2.5,0.2-3.2,0.5c-0.7,0.3-1.1,1-1.1,1.9v8
		c0,0.5,0.1,0.9,0.4,1.2c0.2,0.3,0.6,0.5,1.1,0.7c0.5,0.1,0.9,0.2,1.3,0.3c0.4,0,0.9,0.1,1.6,0.1c0.6,0,1.1,0,1.6-0.1
		c0.4,0,0.9-0.1,1.3-0.3c0.4-0.1,0.8-0.4,1-0.7C71.2,21.4,71.3,21,71.3,20.6z"/>
	<path class="st3" d="M136.8,25.6h-4.4v-7.8h-7.7v7.8h-4.4V7.4h4.4v7.3h7.7V7.4h4.4V25.6z"/>
	<path class="st3" d="M146.8,25.6h-4.4V7.4h4.4V25.6z"/>
	<path class="st3" d="M156.8,25.6h-4.4V7.4h4.4V25.6z M169.6,25.6h-5.3l-7.4-9.6l6.8-8.5h5.1l-6.9,8.5L169.6,25.6z"/>
</g>
</svg>
