<?xml version="1.0" encoding="utf-8"?>
<!-- Generator: Adobe Illustrator 19.0.1, SVG Export Plug-In . SVG Version: 6.00 Build 0)  -->
<svg version="1.1" id="Слой_1" xmlns="http://www.w3.org/2000/svg" xmlns:xlink="http://www.w3.org/1999/xlink" x="0px" y="0px"
	 viewBox="0 0 15 20" style="enable-background:new 0 0 15 20;" xml:space="preserve">
<style type="text/css">
	.st0{fill:#FFFFFF;}
</style>
<path class="st0" d="M7.5,9.8c2.2,0,4-2.2,4-4.9c0-2.7-0.6-4.9-4-4.9c-3.4,0-4,2.2-4,4.9C3.5,7.6,5.3,9.8,7.5,9.8z"/>
<path class="st0" d="M0,17.2C0,17.1,0,17.2,0,17.2L0,17.2z"/>
<path class="st0" d="M15,17.4C15,17.3,15,17.1,15,17.4L15,17.4z"/>
<path class="st0" d="M15,17.1c-0.1-4.7-0.7-6-5.3-6.9c0,0-0.7,0.8-2.2,0.8c-1.5,0-2.2-0.8-2.2-0.8C0.7,11,0.1,12.3,0,16.9
	c0,0.4,0,0.4,0,0.4c0,0.1,0,0.2,0,0.5c0,0,1.1,2.3,7.5,2.3c6.4,0,7.5-2.3,7.5-2.3c0-0.2,0-0.3,0-0.4C15,17.4,15,17.4,15,17.1z"/>
</svg>
