<?xml version="1.0" encoding="utf-8"?>
<!-- Generator: Adobe Illustrator 19.0.1, SVG Export Plug-In . SVG Version: 6.00 Build 0)  -->
<svg version="1.1" id="Слой_1" xmlns="http://www.w3.org/2000/svg" xmlns:xlink="http://www.w3.org/1999/xlink" x="0px" y="0px"
	 viewBox="0 0 60 60" style="enable-background:new 0 0 60 60;" xml:space="preserve">
<style type="text/css">
	.st0{fill:#FFFFFF;}
</style>
<path class="st0" d="M47,33c-0.7,0-1.4,0.1-2.1,0.2c1.2-1.7,2.1-3.6,2.8-5.6c1.4-0.6,2.3-2,2.3-3.6v-4c0-1-0.4-1.9-1-2.6v-5.3
	c0.1-0.6,0.3-3.8-2.1-6.5C44.9,3.2,41.5,2,37,2s-7.9,1.2-9.9,3.5C25.7,7.2,25.2,9,25,10.3C23.3,9.4,21.3,9,19,9C8.6,9,8,17.9,8,18
	v4.6c-0.6,0.7-1,1.5-1,2.3v3.5c0,1.1,0.5,2.1,1.3,2.8c0.8,3.1,2.9,5.5,3.6,6.3v2.7c0,0.8-0.4,1.5-1.2,1.9l-6.7,4.2
	c-2.5,1.4-4.1,4.1-4.1,7V57h14h2h24.1c2,1.3,4.4,2,6.9,2c7.2,0,13-5.8,13-13S54.2,33,47,33z M14,52.8V55H2v-1.8C2,51,3.2,49,5.1,48
	l6.7-4.2c1.3-0.7,2.2-2.1,2.2-3.6v-3.6l-0.3-0.3c0,0-2.7-2.5-3.5-6l-0.1-0.4l-0.3-0.2C9.3,29.4,9,28.9,9,28.4v-3.5
	c0-0.4,0.2-0.8,0.7-1.2l0.3-0.3l0-5.4c0-0.3,0.5-7.1,9-7.1c2.4,0,4.4,0.6,6,1.6v4.7c-0.6,0.7-1,1.7-1,2.6v4c0,0.3,0,0.6,0.1,0.9
	c0,0.1,0.1,0.2,0.1,0.3c0.1,0.2,0.1,0.3,0.2,0.5c0,0,0,0,0,0c0.3,0.5,0.6,1,1.1,1.4c0,0,0,0,0,0.1c0.1,0.2,0.1,0.5,0.2,0.7l0.1,0.3
	c0,0,0,0.1,0,0.1c0,0.1,0.1,0.2,0.1,0.3c0.1,0.2,0.1,0.4,0.2,0.6c0,0.1,0.1,0.2,0.1,0.2c0.1,0.2,0.2,0.4,0.3,0.6c0,0,0,0.1,0.1,0.1
	l0.1,0.1c0,0.1,0.1,0.1,0.1,0.2c0.1,0.2,0.2,0.4,0.3,0.6c0,0,0,0.1,0,0.1c0.1,0.1,0.1,0.2,0.2,0.4c0.1,0.2,0.2,0.4,0.3,0.6
	c0.1,0.1,0.1,0.2,0.2,0.3c0.1,0.2,0.3,0.5,0.4,0.7c0,0,0.1,0.1,0.1,0.1c0.2,0.4,0.5,0.7,0.6,0.9c0,0.1,0.1,0.1,0.1,0.2
	c0,0,0.1,0.1,0.1,0.1v3.3c0,1-0.5,1.9-1.4,2.3L25,41.4l-0.6,0.4l-5.6,3.1C15.8,46.4,14,49.5,14,52.8z M16,55v-2.2
	c0-2.6,1.4-4.9,3.7-6.2l8.9-4.9c1.5-0.8,2.4-2.4,2.4-4.1v-4v0l-0.2-0.2l0,0c0,0-0.1-0.1-0.2-0.2c0,0,0,0,0,0
	c-0.1-0.1-0.1-0.2-0.2-0.3c0,0,0,0,0,0c-0.1-0.2-0.3-0.5-0.5-0.8c0,0,0,0,0,0c-0.1-0.2-0.2-0.3-0.3-0.5c0,0,0,0,0,0
	c-0.2-0.4-0.5-0.8-0.7-1.3l0,0c-0.1-0.3-0.3-0.5-0.4-0.8l0,0c0,0,0-0.1-0.1-0.1l0,0c-0.1-0.1-0.1-0.3-0.2-0.4c0,0,0-0.1-0.1-0.1
	c-0.1-0.1-0.1-0.3-0.2-0.4c-0.1-0.3-0.2-0.6-0.3-0.8l-0.1-0.2c0,0,0,0,0-0.1c-0.1-0.3-0.2-0.6-0.3-1l-0.1-0.4l-0.3-0.2
	c-0.6-0.4-0.9-1-0.9-1.7v-4c0-0.6,0.2-1.1,0.7-1.5l0.3-0.3V12v-0.4l0,0c0-0.7,0-2.9,1.6-4.8C30.3,5,33.1,4,37,4c3.9,0,6.7,1,8.4,2.8
	c1.9,2.2,1.6,5,1.6,5l0,6.4l0.3,0.3c0.4,0.4,0.7,0.9,0.7,1.5v4c0,0.9-0.6,1.6-1.4,1.9l-0.5,0.2l-0.2,0.5c-0.7,2.1-1.6,4-2.8,5.7
	c-0.3,0.4-0.6,0.8-0.8,1.1L42,33.6V34c-0.3,0.1-0.5,0.2-0.7,0.3c-0.1,0-0.1,0.1-0.2,0.1c-0.2,0.1-0.4,0.2-0.6,0.4
	c-0.1,0.1-0.2,0.1-0.3,0.2c-0.2,0.1-0.4,0.2-0.6,0.4c-0.1,0.1-0.2,0.2-0.4,0.3c-0.3,0.2-0.6,0.4-0.8,0.7c-0.1,0.1-0.3,0.2-0.4,0.3
	c-0.1,0.1-0.3,0.3-0.4,0.4c-0.1,0.1-0.2,0.2-0.3,0.4c-0.1,0.2-0.3,0.3-0.4,0.5c-0.1,0.1-0.2,0.3-0.3,0.4c-0.2,0.3-0.4,0.6-0.6,0.9
	c-0.1,0.1-0.2,0.3-0.3,0.4c-0.1,0.2-0.2,0.4-0.3,0.5c-0.1,0.1-0.1,0.3-0.2,0.4c-0.1,0.2-0.2,0.4-0.2,0.5c-0.1,0.2-0.1,0.4-0.2,0.6
	c-0.1,0.2-0.1,0.4-0.2,0.7c-0.1,0.3-0.2,0.6-0.2,0.8c0,0.1-0.1,0.3-0.1,0.4c0,0.3-0.1,0.5-0.1,0.8c0,0.1,0,0.3,0,0.4
	c0,0.4-0.1,0.8-0.1,1.2c0,0.4,0,0.9,0.1,1.3c0,0.2,0,0.3,0.1,0.5c0,0.3,0.1,0.5,0.1,0.8c0,0.2,0.1,0.3,0.1,0.5
	c0.1,0.2,0.1,0.5,0.2,0.7c0,0.2,0.1,0.3,0.2,0.5c0.1,0.2,0.2,0.5,0.3,0.7c0.1,0.1,0.1,0.3,0.2,0.4c0.1,0.3,0.2,0.5,0.4,0.8
	c0.1,0.1,0.1,0.2,0.2,0.3c0.1,0.3,0.3,0.5,0.5,0.8c0.1,0.1,0.1,0.2,0.2,0.3c0.2,0.3,0.4,0.5,0.6,0.7c0.1,0.1,0.2,0.2,0.2,0.3
	c0.2,0.2,0.3,0.4,0.5,0.5L16,55L16,55z M47,57c-2.3,0-4.4-0.7-6.1-1.9c-0.3-0.2-0.7-0.5-1-0.7c-0.1-0.1-0.2-0.2-0.3-0.3
	c-0.2-0.2-0.4-0.4-0.6-0.6c-0.1-0.1-0.2-0.2-0.3-0.4c-0.2-0.2-0.3-0.4-0.5-0.6c-0.1-0.1-0.2-0.3-0.3-0.4c-0.2-0.3-0.4-0.7-0.6-1
	c0-0.1-0.1-0.2-0.1-0.2c-0.1-0.3-0.3-0.6-0.4-0.9c-0.1-0.1-0.1-0.3-0.1-0.4c-0.1-0.3-0.2-0.5-0.3-0.8c0-0.1-0.1-0.3-0.1-0.4
	c-0.1-0.3-0.1-0.6-0.2-0.9c0-0.1,0-0.2-0.1-0.4c0-0.4-0.1-0.8-0.1-1.3c0-0.3,0-0.7,0.1-1c0-0.1,0-0.2,0-0.4c0-0.2,0.1-0.4,0.1-0.6
	c0-0.1,0.1-0.3,0.1-0.4c0-0.2,0.1-0.4,0.1-0.5c0-0.1,0.1-0.3,0.1-0.4c0.1-0.3,0.2-0.5,0.3-0.8c0.1-0.2,0.2-0.3,0.2-0.5
	c0.1-0.1,0.1-0.2,0.2-0.3c0.1-0.2,0.2-0.3,0.3-0.5c0.1-0.1,0.1-0.2,0.2-0.3c0.1-0.2,0.2-0.3,0.3-0.5c0.1-0.1,0.1-0.2,0.2-0.2
	c0.2-0.3,0.5-0.6,0.8-0.9c0.1-0.1,0.1-0.1,0.2-0.2c0.1-0.1,0.3-0.3,0.4-0.4c0.1-0.1,0.2-0.2,0.3-0.2c0.2-0.1,0.3-0.3,0.5-0.4
	c0.1-0.1,0.2-0.1,0.2-0.2c0.2-0.1,0.3-0.3,0.5-0.4c0,0,0,0,0,0c0.7-0.4,1.4-0.8,2.2-1.1c0.1,0,0.1,0,0.2-0.1l0.3-0.1
	c1-0.3,2.1-0.5,3.2-0.5c6.1,0,11,4.9,11,11S53.1,57,47,57z"/>
<path class="st0" d="M53,45h-5v-5c0-0.6-0.4-1-1-1s-1,0.4-1,1v5h-5c-0.6,0-1,0.4-1,1s0.4,1,1,1h5v5c0,0.6,0.4,1,1,1s1-0.4,1-1v-5h5
	c0.6,0,1-0.4,1-1S53.6,45,53,45z"/>
</svg>
