<?xml version="1.0" encoding="utf-8"?>
<!-- Generator: Adobe Illustrator 19.0.1, SVG Export Plug-In . SVG Version: 6.00 Build 0)  -->
<svg version="1.1" id="Слой_1" xmlns="http://www.w3.org/2000/svg" xmlns:xlink="http://www.w3.org/1999/xlink" x="0px" y="0px"
	 viewBox="0 0 18 18" style="enable-background:new 0 0 18 18;" xml:space="preserve">
<style type="text/css">
	.st0{fill:#FFFFFF;}
</style>
<path class="st0" d="M9,1.1c4.4,0,7.9,3.5,7.9,7.9c0,4.4-3.5,7.9-7.9,7.9c-4.4,0-7.9-3.5-7.9-7.9C1.1,4.6,4.6,1.1,9,1.1z M9,0
	C4.1,0,0,4.1,0,9c0,5,4.1,9,9,9c5,0,9-4,9-9C18,4.1,14,0,9,0L9,0z"/>
<path class="st0" d="M9,14.9c-2.3,0-4.3-1.4-5.2-3.5l1-0.4c0.7,1.7,2.4,2.7,4.2,2.7c1.8,0,3.5-1.1,4.2-2.7l1,0.4
	C13.3,13.6,11.3,14.9,9,14.9z"/>
<path class="st0" d="M7.9,6.8c0,0.6-0.5,1.1-1.1,1.1c-0.6,0-1.1-0.5-1.1-1.1c0-0.6,0.5-1.1,1.1-1.1C7.4,5.6,7.9,6.1,7.9,6.8z"/>
<path class="st0" d="M12.4,6.8c0,0.6-0.5,1.1-1.1,1.1c-0.6,0-1.1-0.5-1.1-1.1c0-0.6,0.5-1.1,1.1-1.1C11.9,5.6,12.4,6.1,12.4,6.8z"/>
</svg>
