<?xml version="1.0" encoding="utf-8"?>
<!-- Generator: Adobe Illustrator 19.0.1, SVG Export Plug-In . SVG Version: 6.00 Build 0)  -->
<svg version="1.1" id="Слой_1" xmlns="http://www.w3.org/2000/svg" xmlns:xlink="http://www.w3.org/1999/xlink" x="0px" y="0px"
	 viewBox="0 0 23 20" style="enable-background:new 0 0 23 20;" xml:space="preserve">
<style type="text/css">
	.st0{fill:#FFFFFF;}
</style>
<path class="st0" d="M12.6,0.2c-0.4-0.2-0.9-0.2-1.4,0c0,0,0,0-0.1,0l-6,5H0.4C0.2,5.2,0,5.4,0,5.6v8.3c0,0.1,0,0.2,0.1,0.3
	c0.1,0.1,0.2,0.1,0.3,0.1l4.7,0l6,5.4c0,0,0,0,0.1,0.1c0.2,0.1,0.5,0.2,0.7,0.2c0.2,0,0.5-0.1,0.7-0.2c0.4-0.2,0.7-0.7,0.7-1.2V1.4
	C13.3,0.9,13,0.4,12.6,0.2z M12.4,18.6c0,0.2-0.1,0.4-0.3,0.4c-0.1,0-0.2,0.1-0.4,0l-5.9-5.4v-2c0-0.2-0.2-0.4-0.4-0.4
	c-0.2,0-0.4,0.2-0.4,0.4v1.7l-4,0V6.1h4v1.7c0,0.2,0.2,0.4,0.4,0.4c0.2,0,0.4-0.2,0.4-0.4v-2l5.9-4.9c0.2-0.1,0.4,0,0.4,0
	c0.2,0.1,0.3,0.3,0.3,0.4V18.6z"/>
<path class="st0" d="M17.2,1.8c-0.2-0.1-0.5,0-0.6,0.3c-0.1,0.2,0,0.5,0.3,0.6c3.1,1,5.2,3.9,5.2,7.2c0,3.3-2.1,6.1-5.2,7.2
	c-0.2,0.1-0.4,0.3-0.3,0.6c0.1,0.2,0.2,0.3,0.4,0.3c0,0,0.1,0,0.1,0c3.5-1.2,5.8-4.4,5.8-8C23,6.2,20.6,2.9,17.2,1.8z"/>
<path class="st0" d="M19,9.8c0-2.6-1.8-4.9-4.3-5.6c-0.2-0.1-0.5,0.1-0.5,0.3c-0.1,0.2,0.1,0.5,0.3,0.5c2.2,0.6,3.7,2.6,3.7,4.8
	c0,2.2-1.5,4.2-3.7,4.8c-0.2,0.1-0.4,0.3-0.3,0.5c0.1,0.2,0.2,0.3,0.4,0.3c0,0,0.1,0,0.1,0C17.2,14.7,19,12.4,19,9.8z"/>
</svg>
