<?xml version="1.0" encoding="utf-8"?>
<!-- Generator: Adobe Illustrator 19.0.1, SVG Export Plug-In . SVG Version: 6.00 Build 0)  -->
<svg version="1.1" id="Слой_1" xmlns="http://www.w3.org/2000/svg" xmlns:xlink="http://www.w3.org/1999/xlink" x="0px" y="0px"
	 viewBox="0 0 34 20" style="enable-background:new 0 0 34 20;" xml:space="preserve">
<style type="text/css">
	.st0{fill:#FFFFFF;}
</style>
<path class="st0" d="M31.5,5.7c0,1.7-1.4,3.1-3.1,3.1c-1.7,0-3.1-1.4-3.1-3.1c0-1.7,1.4-3.1,3.1-3.1C30,2.5,31.5,3.9,31.5,5.7z
	 M30.2,11l-3.8,3.2c0,0.3,0.1,0.5,0.1,0.8c0,2.8-2.2,5-5,5c-2.4,0-4.4-1.7-4.9-3.9l-9.4-3.2c-0.7,0.6-1.7,0.9-2.7,0.9
	C2,13.8,0,11.9,0,9.4C0,7,2,5,4.4,5c2.1,0,3.9,1.5,4.3,3.4l9.1,3.1c0.9-0.9,2.1-1.5,3.5-1.5l1.4-4.1c0-0.1,0-0.2,0-0.2
	c0-3.1,2.5-5.6,5.7-5.6C31.5,0,34,2.5,34,5.6C34,8.1,32.4,10.2,30.2,11z M7.2,7.9C6.7,7,5.7,6.3,4.5,6.3c-1.7,0-3.1,1.4-3.1,3.1
	c0,1.7,1.4,3.1,3.1,3.1c0.3,0,0.6,0,0.9-0.1l-1.5-0.5c-1.2-0.6-1.6-2.1-1-3.3c0.6-1.2,2.1-1.6,3.3-1L7.2,7.9z M23.9,5.7
	c0,2.4,2,4.4,4.4,4.4c2.4,0,4.4-2,4.4-4.4c0-2.4-2-4.4-4.4-4.4C25.9,1.3,23.9,3.2,23.9,5.7z M24,15.4c0-1.8-1.5-3.3-3.4-3.3
	c-0.3,0-0.5,0-0.8,0.1l1.9,0.6c1.2,0.6,1.6,2.1,1,3.3c-0.6,1.2-2.1,1.6-3.3,1l-2-0.7c0.4,1.4,1.7,2.4,3.2,2.4
	C22.5,18.8,24,17.3,24,15.4z"/>
</svg>
