<?xml version="1.0" encoding="utf-8"?>
<!-- Generator: Adobe Illustrator 19.0.1, SVG Export Plug-In . SVG Version: 6.00 Build 0)  -->
<svg version="1.1" id="Capa_1" xmlns="http://www.w3.org/2000/svg" xmlns:xlink="http://www.w3.org/1999/xlink" x="0px" y="0px"
	 viewBox="-49 141 512 512" style="enable-background:new -49 141 512 512;" xml:space="preserve">
<style type="text/css">
	.st0{fill:#FFFFFF;}
</style>
<g>
	<path class="st0" d="M207,583.6c4.8,0,8.7-3.9,8.7-8.7V288.5c0-4.8-3.9-8.7-8.7-8.7s-8.7,3.9-8.7,8.7v286.4
		C198.3,579.7,202.2,583.6,207,583.6z"/>
	<path class="st0" d="M120.2,583.6c4.8,0,8.7-3.9,8.7-8.7V288.5c0-4.8-3.9-8.7-8.7-8.7s-8.7,3.9-8.7,8.7v286.4
		C111.5,579.7,115.4,583.6,120.2,583.6z"/>
	<path class="st0" d="M293.8,583.6c4.8,0,8.7-3.9,8.7-8.7V288.5c0-4.8-3.9-8.7-8.7-8.7s-8.7,3.9-8.7,8.7v286.4
		C285.1,579.7,289,583.6,293.8,583.6z"/>
	<path class="st0" d="M406.6,193.1H284.7c-1-10.8-4.3-29.1-15.7-40.9c-7.2-7.4-16.4-11.2-27.3-11.2h-86.8c-10.9,0-20,3.8-27.3,11.2
		c-11.4,11.7-14.8,30-15.7,40.9H7.4c-4.8,0-8.7,3.9-8.7,8.7c0,4.8,3.9,8.7,8.7,8.7h17.7l16.6,399.4c0.3,14.9,9.6,43.2,42.6,43.2
		h245.3c33,0,42.3-28.3,42.6-43l16.6-399.6h17.7c4.8,0,8.7-3.9,8.7-8.7C415.3,196.9,411.4,193.1,406.6,193.1z M140.1,164.3
		c3.9-4,8.7-5.9,14.8-5.9h86.8c6.1,0,10.9,1.9,14.8,5.9c7,7.1,9.8,19.7,10.8,28.8H129.4C130.3,184,133.1,171.4,140.1,164.3z
		 M354.9,609.4c-0.1,2.7-1.2,26.2-25.2,26.2H84.3c-23.7,0-25.1-23.6-25.2-26.4L42.5,210.4h329L354.9,609.4z"/>
</g>
</svg>
