<?xml version="1.0" encoding="utf-8"?>
<!-- Generator: Adobe Illustrator 19.0.1, SVG Export Plug-In . SVG Version: 6.00 Build 0)  -->
<svg version="1.1" id="Слой_1" xmlns="http://www.w3.org/2000/svg" xmlns:xlink="http://www.w3.org/1999/xlink" x="0px" y="0px"
	 viewBox="0 0 35 20" style="enable-background:new 0 0 35 20;" xml:space="preserve">
<style type="text/css">
	.st0{fill:#FFFFFF;}
</style>
<path class="st0" d="M30.1,12.7c1.2,1.1,2.4,2.2,3.4,3.5c0.5,0.6,0.9,1.1,1.2,1.8c0.5,0.9,0,1.9-0.8,2l-5.1,0
	c-1.3,0.1-2.4-0.4-3.2-1.3c-0.7-0.7-1.4-1.5-2-2.3c-0.3-0.3-0.6-0.6-0.9-0.8C22,15.1,21.4,15.3,21,16c-0.4,0.7-0.5,1.6-0.5,2.4
	C20.4,19.6,20,20,18.8,20c-2.6,0.1-5-0.3-7.3-1.6c-2-1.2-3.6-2.8-4.9-4.6C4,10.2,2,6.2,0.2,2.1c-0.4-0.9-0.1-1.4,0.9-1.4
	c1.7,0,3.3,0,5,0c0.7,0,1.1,0.4,1.4,1c0.9,2.2,2,4.4,3.4,6.3c0.4,0.5,0.7,1.1,1.3,1.4c0.6,0.4,1,0.3,1.3-0.4
	c0.2-0.4,0.3-0.9,0.3-1.3c0.1-1.6,0.1-3.1-0.1-4.7c-0.1-1-0.7-1.6-1.6-1.8c-0.5-0.1-0.4-0.3-0.2-0.6C12.2,0.3,12.6,0,13.4,0h5.8
	c0.9,0.2,1.1,0.6,1.2,1.5l0,6.5c0,0.4,0.2,1.4,0.8,1.7c0.5,0.2,0.8-0.2,1.2-0.6c1.4-1.5,2.4-3.2,3.2-5c0.4-0.8,0.7-1.6,1.1-2.5
	c0.2-0.6,0.6-0.9,1.3-0.9l5.5,0c0.2,0,0.3,0,0.5,0c0.9,0.2,1.2,0.6,0.9,1.5c-0.5,1.4-1.3,2.7-2.2,3.9c-0.9,1.3-1.9,2.5-2.8,3.8
	C29,11.1,29.1,11.7,30.1,12.7L30.1,12.7z"/>
</svg>
