<?xml version="1.0" encoding="utf-8"?>
<!-- Generator: Adobe Illustrator 19.0.1, SVG Export Plug-In . SVG Version: 6.00 Build 0)  -->
<svg version="1.1" id="Слой_1" xmlns="http://www.w3.org/2000/svg" xmlns:xlink="http://www.w3.org/1999/xlink" x="0px" y="0px"
	 viewBox="0 0 44 44" style="enable-background:new 0 0 44 44;" xml:space="preserve">
<style type="text/css">
	.st0{fill:#BC4344;}
</style>
<path class="st0" d="M20.7,10.9l1.2,16h1.7l1.2-16H20.7z M24.7,29.3h-3.9V33h3.9V29.3z"/>
<path class="st0" d="M20.7,10.9l1.2,16h1.7l1.2-16H20.7z M24.7,29.3h-3.9V33h3.9V29.3z"/>
<path class="st0" d="M22,1c11.6,0,21,9.4,21,21s-9.4,21-21,21S1,33.6,1,22S10.4,1,22,1 M22,0C9.8,0,0,9.8,0,22s9.8,22,22,22
	s22-9.8,22-22S34.2,0,22,0L22,0z"/>
</svg>
